<?xml version="1.0" standalone="no"?>
<!DOCTYPE svg PUBLIC "-//W3C//DTD SVG 20010904//EN"
 "http://www.w3.org/TR/2001/REC-SVG-20010904/DTD/svg10.dtd">
<svg version="1.0" xmlns="http://www.w3.org/2000/svg"
 width="650.000000pt" height="650.000000pt" viewBox="0 0 650.000000 650.000000"
 preserveAspectRatio="xMidYMid meet">

<g transform="translate(0.000000,650.000000) scale(0.100000,-0.100000)"
fill="#000000" stroke="none">
<path d="M0 3250 l0 -3250 3250 0 3250 0 0 3250 0 3250 -3250 0 -3250 0 0
-3250z m5696 491 c103 -47 124 -179 44 -289 -17 -23 -64 -68 -105 -99 -65 -51
-74 -61 -70 -85 5 -31 -13 -49 -42 -42 -16 4 -106 -64 -409 -313 -214 -175
-410 -335 -435 -355 l-45 -37 -129 156 c-106 129 -126 158 -114 167 52 39 849
698 854 705 3 5 -6 22 -19 38 l-24 27 -73 -60 c-41 -33 -157 -129 -257 -212
-155 -127 -187 -149 -205 -143 -13 5 -23 18 -25 32 -2 21 37 57 268 248 150
123 281 226 293 229 16 4 31 -7 67 -48 l47 -54 25 20 c14 10 51 39 82 63 31
24 73 49 93 57 54 19 131 17 179 -5z m-1241 -1130 l118 -144 -24 -19 c-13 -10
-33 -25 -44 -33 -28 -20 -515 -215 -536 -215 -23 0 -43 26 -35 46 3 9 72 117
153 240 149 229 215 307 239 282 6 -7 64 -78 129 -157z m-2644 -992 c178 -66
330 -126 338 -133 16 -16 7 -52 -16 -60 -12 -5 -298 96 -606 213 -26 10 -29 9
-43 -25 -8 -20 -14 -37 -12 -39 2 -1 241 -91 531 -200 438 -164 527 -201 522
-214 -4 -9 -34 -88 -66 -175 -33 -88 -63 -165 -67 -172 -5 -9 -152 41 -531
182 -458 171 -527 194 -547 184 -28 -15 -44 -6 -44 25 0 20 -10 27 -82 51
-112 36 -149 56 -188 100 -91 105 -77 233 33 291 73 38 165 33 285 -16 29 -11
58 -21 65 -21 7 0 21 24 32 53 22 63 32 77 55 77 9 0 163 -54 341 -121z m860
-493 c15 -6 113 -78 218 -159 l191 -148 0 -56 0 -56 -97 6 c-54 4 -168 9 -253
12 -144 6 -226 20 -254 46 -5 4 21 88 60 193 75 202 66 191 135 162z"/>
</g>
</svg>
